<svg xmlns="http://www.w3.org/2000/svg" xmlns:xlink="http://www.w3.org/1999/xlink" width="1024" zoomAndPan="magnify" viewBox="0 0 768 767.999994" height="1024" preserveAspectRatio="xMidYMid meet" version="1.0"><defs><g/><clipPath id="6f684dbdd6"><path d="M 108 104.546875 L 660 104.546875 L 660 663 L 108 663 Z M 108 104.546875 " clip-rule="nonzero"/></clipPath><clipPath id="87be119914"><path d="M 52.480469 331.167969 L 691.371094 331.167969 L 691.371094 436.824219 L 52.480469 436.824219 Z M 52.480469 331.167969 " clip-rule="nonzero"/></clipPath><clipPath id="7a5cba08e4"><path d="M 691.199219 342.417969 L 691.199219 425.574219 C 691.199219 428.554688 690.015625 431.417969 687.90625 433.527344 C 685.796875 435.636719 682.933594 436.824219 679.949219 436.824219 L 63.730469 436.824219 C 60.746094 436.824219 57.882812 435.636719 55.773438 433.527344 C 53.664062 431.417969 52.480469 428.554688 52.480469 425.574219 L 52.480469 342.417969 C 52.480469 339.433594 53.664062 336.570312 55.773438 334.460938 C 57.882812 332.351562 60.746094 331.167969 63.730469 331.167969 L 679.949219 331.167969 C 682.933594 331.167969 685.796875 332.351562 687.90625 334.460938 C 690.015625 336.570312 691.199219 339.433594 691.199219 342.417969 Z M 691.199219 342.417969 " clip-rule="nonzero"/></clipPath><clipPath id="d957ed75d1"><path d="M 0.480469 0.167969 L 639.371094 0.167969 L 639.371094 105.824219 L 0.480469 105.824219 Z M 0.480469 0.167969 " clip-rule="nonzero"/></clipPath><clipPath id="08fac5c2f3"><path d="M 639.199219 11.417969 L 639.199219 94.574219 C 639.199219 97.554688 638.015625 100.417969 635.90625 102.527344 C 633.796875 104.636719 630.933594 105.824219 627.949219 105.824219 L 11.730469 105.824219 C 8.746094 105.824219 5.882812 104.636719 3.773438 102.527344 C 1.664062 100.417969 0.480469 97.554688 0.480469 94.574219 L 0.480469 11.417969 C 0.480469 8.433594 1.664062 5.570312 3.773438 3.460938 C 5.882812 1.351562 8.746094 0.167969 11.730469 0.167969 L 627.949219 0.167969 C 630.933594 0.167969 633.796875 1.351562 635.90625 3.460938 C 638.015625 5.570312 639.199219 8.433594 639.199219 11.417969 Z M 639.199219 11.417969 " clip-rule="nonzero"/></clipPath><clipPath id="6570d973e3"><rect x="0" width="640" y="0" height="106"/></clipPath><clipPath id="ca0735eb35"><path d="M 52.480469 331.167969 L 691.480469 331.167969 L 691.480469 436.917969 L 52.480469 436.917969 Z M 52.480469 331.167969 " clip-rule="nonzero"/></clipPath><clipPath id="0ebe7c6bcb"><path d="M 691.199219 342.417969 L 691.199219 425.574219 C 691.199219 428.554688 690.011719 431.417969 687.902344 433.527344 C 685.792969 435.636719 682.929688 436.824219 679.949219 436.824219 L 63.730469 436.824219 C 60.746094 436.824219 57.882812 435.636719 55.773438 433.527344 C 53.664062 431.417969 52.480469 428.554688 52.480469 425.574219 L 52.480469 342.417969 C 52.480469 339.433594 53.664062 336.570312 55.773438 334.460938 C 57.882812 332.351562 60.746094 331.167969 63.730469 331.167969 L 679.949219 331.167969 C 682.929688 331.167969 685.792969 332.351562 687.902344 334.460938 C 690.011719 336.570312 691.199219 339.433594 691.199219 342.417969 Z M 691.199219 342.417969 " clip-rule="nonzero"/></clipPath></defs><rect x="-76.8" width="921.6" fill="#ffffff" y="-76.799999" height="921.599993" fill-opacity="1"/><rect x="-76.8" width="921.6" fill="#2bb6d0" y="-76.799999" height="921.599993" fill-opacity="1"/><g clip-path="url(#6f684dbdd6)"><path fill="#edcc9a" d="M 659.484375 226.410156 C 659.09375 230.140625 658.523438 233.617188 656.488281 236.839844 C 655.210938 238.867188 654.625 241.3125 653.476562 243.4375 C 652.261719 245.691406 650.605469 247.703125 649.410156 249.96875 C 647.660156 253.292969 645.773438 256.621094 644.613281 260.167969 C 642.484375 266.679688 638.90625 271.664062 632.617188 274.753906 C 627.402344 277.316406 621.839844 278.890625 616.332031 280.296875 C 605.277344 283.117188 597.121094 289.542969 590.632812 298.558594 C 589.335938 300.355469 589.5 302.34375 589.957031 304.242188 C 590.871094 308.042969 592.25 311.742188 593.007812 315.566406 C 593.738281 319.289062 593.773438 323.113281 593.117188 326.847656 C 592.414062 330.96875 590.566406 334.640625 588.261719 337.992188 C 585.785156 341.585938 584.511719 345.539062 583.589844 349.6875 C 583.429688 350.429688 583.394531 351.191406 583.484375 351.949219 C 584.328125 359.136719 585.214844 366.316406 586.074219 373.503906 C 586.394531 376.203125 586.816406 378.90625 586.925781 381.617188 C 587.097656 385.882812 588.804688 389.621094 590.945312 393.09375 C 593.578125 397.375 595.261719 402.015625 596.972656 406.667969 C 598.597656 411.078125 598.300781 415.71875 597.671875 420.148438 C 596.960938 425.160156 597.085938 430.121094 597.328125 435.085938 C 597.515625 438.980469 598.339844 442.839844 598.851562 446.71875 C 599.945312 454.976562 602.671875 462.625 608.027344 469.066406 C 610.324219 471.832031 613.257812 474.070312 615.949219 476.496094 C 619.882812 480.042969 624.015625 483.378906 627.769531 487.101562 C 632.394531 491.683594 636.84375 496.460938 641.140625 501.351562 C 644.359375 505.015625 646.988281 509.097656 647.238281 514.230469 C 647.222656 514.378906 647.242188 514.535156 647.292969 514.679688 C 649.714844 519.058594 648.4375 523.898438 649.078125 528.496094 C 649.757812 533.421875 650.046875 538.390625 650.523438 543.320312 C 651.289062 551.1875 653.597656 558.675781 654.949219 566.378906 C 655.804688 570.859375 655.53125 575.484375 654.144531 579.832031 C 653.65625 581.613281 652.445312 583.109375 650.800781 583.960938 C 647.410156 585.640625 644.097656 587.363281 640.175781 587.730469 C 638.3125 587.902344 636.449219 588.914062 634.761719 589.859375 C 633.191406 590.777344 631.742188 591.886719 630.445312 593.164062 C 624.226562 599.140625 616.699219 603.082031 609.007812 606.640625 C 605.582031 608.265625 601.742188 608.8125 598 608.210938 C 593.359375 607.476562 588.871094 606.296875 584.320312 605.257812 C 577.417969 603.683594 570.433594 602.507812 563.539062 600.8125 C 559.75 599.878906 555.914062 599.027344 552.09375 598.179688 C 544.164062 596.417969 538.597656 591.703125 534.324219 585.128906 C 533.25 583.480469 532.226562 581.792969 531.3125 580.054688 C 528.742188 575.167969 524.371094 573.183594 519.238281 572.207031 C 515.242188 571.445312 511.269531 570.527344 507.339844 569.484375 C 504.167969 568.640625 501.769531 566.382812 499.507812 564.203125 C 495.808594 560.621094 491.527344 557.707031 486.839844 555.578125 C 484.539062 554.53125 481.933594 554.175781 479.488281 553.425781 C 472.582031 551.296875 465.699219 551.941406 458.914062 553.828125 C 453.09375 555.449219 447.355469 557.316406 441.902344 560.0625 C 436.574219 562.742188 431.625 565.855469 427.414062 570.09375 C 425.59375 571.925781 423.65625 573.652344 421.957031 575.585938 C 419.4375 578.449219 416.207031 580.015625 412.667969 581.019531 C 406.710938 582.707031 400.742188 584.328125 394.75 585.882812 C 390.136719 587.089844 387.015625 589.824219 385.613281 594.414062 C 384.90625 596.71875 384.308594 599.054688 383.554688 601.34375 C 380.773438 609.792969 376.632812 617.40625 370.085938 623.613281 C 367.90625 625.683594 366.058594 628.105469 364.105469 630.40625 C 360.863281 634.230469 357.421875 637.839844 353.039062 640.371094 C 350.65625 641.746094 349.210938 643.554688 348.730469 646.371094 C 348.308594 648.875 347.160156 651.246094 346.625 653.738281 C 346.101562 655.992188 344.640625 657.917969 342.609375 659.027344 C 337.679688 661.992188 332.34375 663.300781 326.535156 662.03125 C 319.304688 660.453125 313.066406 657.09375 307.46875 652.273438 C 303.210938 648.621094 298.449219 645.59375 293.332031 643.292969 C 291.121094 642.332031 288.765625 641.734375 286.363281 641.527344 C 280.800781 641.003906 275.210938 640.652344 269.625 640.503906 C 262.625 640.320312 256.691406 638.007812 251.757812 632.929688 C 246.679688 627.703125 242.335938 621.914062 238.019531 616.082031 C 233.535156 610.023438 227.960938 605.046875 221.199219 601.835938 C 216.953125 599.792969 212.300781 598.730469 207.585938 598.71875 C 203.347656 598.75 199.128906 598.089844 195.097656 596.769531 C 192.675781 595.9375 190.414062 594.6875 188.414062 593.082031 C 184.960938 590.347656 181.769531 587.171875 179.800781 583.210938 C 178.253906 580.09375 175.902344 578.316406 172.914062 577.007812 C 167.875 574.859375 163.402344 571.574219 159.84375 567.40625 C 158.675781 566.03125 157.667969 564.523438 156.839844 562.917969 C 154.792969 558.851562 153.707031 554.371094 153.671875 549.820312 C 153.632812 547.285156 154.164062 544.746094 153.3125 542.257812 C 153.027344 541.433594 152.683594 540.453125 152.046875 539.960938 C 149.535156 538.03125 147.050781 535.976562 144.273438 534.503906 C 137.46875 530.886719 130.550781 527.460938 123.585938 524.164062 C 118.511719 521.761719 114.4375 518.167969 110.960938 513.933594 C 108.988281 511.527344 107.621094 508.734375 108.390625 505.222656 C 108.867188 503.050781 108.425781 500.6875 108.496094 498.410156 C 108.734375 490.855469 110.5 483.683594 115.019531 477.546875 C 118.230469 473.1875 121.746094 469.007812 127.273438 467.167969 C 130.398438 466.128906 133.304688 464.457031 136.398438 463.304688 C 137.777344 462.789062 139.417969 463.011719 140.859375 462.609375 C 144.207031 461.742188 147.507812 460.703125 150.746094 459.496094 C 152.550781 458.730469 154.210938 457.667969 155.65625 456.347656 C 157.9375 454.355469 159.960938 452.074219 162.148438 449.96875 C 165.789062 446.46875 170.105469 444.582031 175.222656 444.648438 C 181.445312 444.730469 187.570312 443.710938 193.679688 442.734375 C 198.398438 441.976562 201.839844 439.183594 204.5 435.195312 C 207.730469 430.351562 207.300781 426.007812 203.789062 421.480469 C 201.410156 418.417969 198.152344 416.457031 195.421875 413.855469 C 190.03125 408.730469 183.570312 404.980469 177.796875 400.339844 C 177.324219 399.960938 176.910156 399.511719 176.476562 399.085938 C 171.863281 394.566406 171.367188 392.886719 173.929688 387.046875 C 175.898438 382.566406 176.953125 377.886719 177.738281 373.128906 C 178.234375 370.117188 176.894531 367.390625 175.125 365.132812 C 172.886719 362.28125 170.265625 359.789062 166.730469 358.355469 C 162.761719 356.75 159.066406 356.484375 155.726562 359.554688 C 153.742188 361.378906 151.441406 360.964844 149.277344 360.5 C 144.410156 359.453125 139.496094 358.457031 134.800781 356.851562 C 129.765625 355.175781 125.011719 352.753906 120.695312 349.667969 C 120.082031 349.222656 119.542969 348.664062 118.902344 348.265625 C 112.625 344.382812 110.078125 338.578125 111.539062 331.578125 C 112.523438 326.867188 111.898438 322.558594 110.519531 318.25 C 108.9375 313.304688 109.753906 308.695312 111.882812 304.222656 C 113.25 301.359375 114.980469 298.667969 116.429688 295.84375 C 118.414062 291.972656 120.503906 288.132812 122.160156 284.117188 C 124.675781 278.007812 128.546875 272.859375 132.992188 268.136719 C 136.265625 264.75 140.273438 262.164062 144.707031 260.578125 C 152.703125 257.5625 160.894531 255.617188 169.503906 256.097656 C 174.957031 256.402344 179.664062 254.445312 183.769531 251.175781 C 185.859375 249.511719 187.570312 247.265625 189.113281 245.046875 C 192.59375 240.042969 197.570312 237.464844 203.234375 236.070312 C 206.738281 235.207031 210.367188 234.863281 213.917969 234.179688 C 217.035156 233.597656 220.035156 232.507812 222.796875 230.953125 C 225.445312 229.429688 227.515625 227.066406 228.679688 224.242188 C 231 218.980469 232.367188 213.347656 232.71875 207.605469 C 233.1875 200.542969 234.203125 193.527344 235.757812 186.621094 C 236.898438 181.324219 238.019531 176.019531 238.101562 170.519531 C 238.179688 165.222656 240.453125 161.074219 245.359375 158.382812 C 248.816406 156.488281 252.074219 154.34375 256.042969 153.566406 C 259.011719 152.957031 262.070312 152.917969 265.054688 153.457031 C 270.394531 154.441406 275.640625 155.9375 281.160156 155.910156 C 282.761719 155.898438 284.398438 156.574219 285.964844 157.09375 C 291.984375 159.082031 298.003906 161.074219 303.984375 163.179688 C 313.402344 166.496094 323.273438 168.078125 332.839844 170.835938 C 340.527344 173.054688 348.257812 175.113281 356.035156 177.011719 C 360.417969 178.085938 364.976562 178.480469 369.34375 179.605469 C 375.210938 181.113281 380.40625 179.4375 385.480469 176.894531 C 390.121094 174.566406 393.085938 170.496094 395.617188 166.191406 C 399.617188 159.449219 403.167969 152.449219 406.242188 145.238281 C 407.628906 141.875 409.46875 138.722656 411.71875 135.867188 C 415.644531 130.960938 421.015625 128.851562 426.875 127.527344 C 431.304688 126.617188 435.269531 124.171875 438.066406 120.617188 C 440.601562 117.414062 443.359375 114.375 446.15625 111.398438 C 450.183594 107.109375 455.34375 105.039062 461.113281 104.789062 C 466.242188 104.5625 471.371094 104.546875 476.519531 105.488281 C 480.054688 106.136719 483.785156 105.757812 487.429688 105.75 C 497.875 105.726562 507.429688 109.03125 516.265625 114.183594 C 521.132812 117.023438 525.242188 120.996094 528.242188 125.761719 C 530.1875 128.84375 531.246094 132.09375 530.070312 135.683594 C 529.523438 137.28125 529.746094 139.046875 530.671875 140.464844 C 531.867188 142.554688 533.191406 144.566406 534.636719 146.492188 C 538.734375 151.722656 543.226562 156.667969 547.054688 162.082031 C 550.492188 167.09375 552.953125 172.707031 554.308594 178.632812 C 554.8125 180.683594 555.261719 182.75 555.882812 184.765625 C 557.738281 190.792969 562.195312 193.984375 568.136719 194.707031 C 571.03125 195.058594 574.085938 193.917969 577.082031 193.621094 C 583.839844 192.945312 590.441406 190.8125 597.324219 191.375 C 600.496094 191.539062 603.652344 191.890625 606.777344 192.433594 C 611.359375 193.425781 616.019531 194.003906 620.699219 194.160156 C 622.644531 194.207031 624.578125 194.699219 626.515625 195 C 630.242188 195.574219 633.964844 196.175781 637.695312 196.730469 C 641.796875 197.320312 645.515625 199.464844 648.078125 202.726562 C 652.367188 208.011719 656.222656 213.601562 658.136719 220.257812 C 658.714844 222.273438 659.042969 224.355469 659.484375 226.410156 Z M 659.484375 226.410156 " fill-opacity="1" fill-rule="nonzero"/></g><path fill="#edcc9a" d="M 175.210938 177.632812 C 171.449219 178.140625 167.679688 178.570312 163.933594 179.171875 C 159.820312 179.832031 155.753906 180.976562 151.621094 181.285156 C 148.652344 181.511719 145.550781 180.972656 142.605469 180.320312 C 135.851562 178.820312 129.703125 176.300781 124.542969 171.214844 C 120.589844 167.320312 119.160156 162.511719 117.6875 157.660156 C 116.996094 155.382812 116.304688 153.425781 114.546875 151.785156 C 113.734375 150.992188 113.160156 149.988281 112.882812 148.886719 C 110.929688 140.894531 109.949219 132.761719 110.632812 124.554688 C 111.15625 118.300781 113.367188 116.414062 118.691406 115.070312 C 124.613281 113.574219 130.300781 113.132812 135.6875 116.757812 C 136.53125 117.199219 137.464844 117.4375 138.414062 117.457031 C 145.132812 118.132812 151.28125 120.695312 157.355469 123.359375 C 159.597656 124.410156 161.652344 125.816406 163.4375 127.527344 C 168.410156 132.261719 174.257812 135.976562 180.65625 138.460938 C 185.59375 140.433594 190.308594 142.921875 194.726562 145.882812 C 201.285156 149.984375 205.816406 156.652344 207.226562 164.257812 C 208.089844 168.609375 206.152344 171.550781 202.453125 172.402344 C 196.171875 173.84375 190.023438 175.863281 183.75 177.359375 C 181.011719 178.015625 178.109375 177.972656 175.28125 178.246094 C 175.257812 178.042969 175.234375 177.839844 175.210938 177.632812 Z M 175.210938 177.632812 " fill-opacity="1" fill-rule="nonzero"/><path fill="#edcc9a" d="M 624.292969 365.339844 C 619.507812 366.269531 615.347656 363.546875 611.753906 360.300781 C 608.132812 357.023438 607.550781 352.375 608.496094 347.707031 C 609.144531 344.765625 609.976562 341.867188 610.980469 339.03125 C 611.960938 336.003906 612.105469 332.769531 611.402344 329.667969 C 610.933594 327.324219 610.96875 324.871094 610.921875 322.460938 C 610.992188 321.726562 611.25 321.019531 611.664062 320.410156 C 613.851562 316.554688 617.316406 313.582031 621.464844 312.011719 C 624.015625 311.074219 626.316406 309.558594 628.183594 307.582031 C 630.894531 304.675781 634.371094 302.78125 637.613281 300.621094 C 642.25 297.539062 647.199219 297.246094 652.175781 300.035156 C 652.960938 300.5 653.769531 300.914062 654.601562 301.277344 C 656.71875 302.148438 658.148438 303.445312 658.3125 305.933594 C 658.390625 307.109375 658.941406 308.253906 659.285156 309.410156 C 659.457031 309.988281 659.898438 310.617188 659.785156 311.125 C 658.867188 315.269531 660.371094 319.472656 659.421875 323.609375 C 659.1875 324.484375 659.09375 325.386719 659.136719 326.292969 C 659.421875 329.601562 657.921875 332.167969 655.757812 334.382812 C 654.074219 336.105469 652.1875 337.632812 650.359375 339.207031 C 648.984375 340.390625 647.46875 341.425781 646.179688 342.695312 C 644.8125 343.898438 643.863281 345.5 643.457031 347.273438 C 642.96875 349.78125 642.207031 352.238281 641.515625 354.707031 C 639.355469 362.417969 635.015625 364.574219 628.0625 365.324219 C 627.011719 365.433594 625.941406 365.339844 624.292969 365.339844 Z M 624.292969 365.339844 " fill-opacity="1" fill-rule="nonzero"/><path fill="#edcc9a" d="M 145.777344 419.261719 C 142.960938 420.53125 140.363281 421.757812 137.722656 422.878906 C 135.496094 423.9375 132.902344 423.925781 130.683594 422.839844 C 128.691406 421.859375 126.621094 421.261719 125.207031 419.128906 C 123.542969 416.617188 121.679688 414.390625 120.960938 411.28125 C 120.464844 409.144531 118.875 407.273438 117.886719 405.230469 C 116.847656 403.234375 115.957031 401.164062 115.226562 399.035156 C 114.578125 397.117188 114.886719 395.007812 116.058594 393.359375 C 118.191406 390.433594 120.261719 387.421875 122.71875 384.78125 C 124.382812 383.023438 126.375 381.601562 128.582031 380.605469 C 133.300781 378.5 137.90625 379.617188 141.617188 382.84375 C 144.445312 385.339844 147.519531 387.535156 150.796875 389.398438 C 154.382812 391.414062 156.785156 394.644531 156.640625 399 C 156.519531 402.703125 158.628906 404.867188 161.253906 406.765625 C 163.332031 408.269531 165.496094 409.671875 167.710938 410.972656 C 169.816406 412.222656 171.402344 414.179688 172.191406 416.496094 C 172.722656 417.910156 173.402344 419.273438 173.871094 420.703125 C 174.878906 423.789062 174.167969 425.574219 171.175781 426.9375 C 169.644531 427.546875 168.046875 427.980469 166.417969 428.234375 C 165.539062 428.414062 164.597656 428.234375 163.695312 428.332031 C 158.1875 428.941406 153.90625 426.75 150.734375 422.417969 C 149.578125 420.734375 147.789062 419.597656 145.777344 419.261719 Z M 145.777344 419.261719 " fill-opacity="1" fill-rule="nonzero"/><path fill="#658245" d="M 320.949219 626.824219 C 319.171875 626.824219 317.851562 625.027344 316.371094 624.460938 C 314.847656 623.878906 312.78125 624.4375 311.308594 623.625 C 309.628906 622.695312 307.347656 622.128906 304.417969 620.804688 C 302.65625 620.003906 300.847656 619.300781 299.007812 618.707031 C 297 618.058594 295.703125 615.257812 293.867188 614.882812 C 291.78125 614.460938 289.621094 615.058594 287.78125 614.867188 C 285.613281 614.644531 283.609375 614.824219 281.824219 614.730469 C 279.917969 614.628906 278.242188 613.046875 276.453125 612.792969 C 274.558594 612.523438 271.960938 614.636719 270.308594 613.835938 C 268.714844 613.066406 269.003906 609.820312 267.746094 608.21875 C 266.527344 606.648438 263.734375 606.386719 262.523438 604.921875 C 261.253906 603.390625 261.585938 600.527344 260.324219 599.109375 C 259.003906 597.625 256.621094 597.140625 255.304688 595.777344 C 253.921875 594.347656 252.265625 593.269531 250.878906 591.972656 C 249.429688 590.613281 248.148438 589.152344 246.691406 587.9375 C 245.167969 586.664062 242.894531 586.496094 241.359375 585.375 C 239.761719 584.207031 238.949219 582.03125 237.332031 581.019531 C 235.664062 579.976562 233.457031 580.015625 231.757812 579.132812 C 230.015625 578.230469 228.460938 577.171875 226.679688 576.429688 C 224.882812 575.683594 223.164062 574.929688 221.316406 574.34375 C 219.46875 573.757812 217.539062 573.773438 215.636719 573.339844 C 213.511719 572.859375 211.816406 571.152344 210.042969 570.476562 C 208.011719 569.699219 205.558594 569.839844 203.921875 568.847656 C 202.089844 567.742188 201.175781 565.386719 199.742188 564.066406 C 198.207031 562.652344 196.257812 561.601562 195.058594 560.015625 C 193.820312 558.375 194.242188 555.683594 193.226562 553.941406 C 192.203125 552.175781 189.269531 552 188.335938 550.207031 C 187.011719 549.800781 186.375 548.304688 184.925781 547.242188 C 183.75 546.378906 182.304688 545.304688 181.386719 543.777344 C 180.390625 542.117188 181.195312 540.058594 181.011719 538.503906 C 180.734375 536.839844 180.691406 535.148438 180.875 533.46875 C 180.785156 533.34375 181.117188 532.582031 181.027344 532.457031 C 179.660156 530.511719 177.933594 529.578125 176.984375 528.527344 C 175.601562 526.992188 174.148438 526.648438 172.160156 526.101562 C 170.769531 525.722656 169.269531 525.949219 167.566406 525.78125 C 166.15625 525.644531 164.691406 524.53125 162.972656 524.53125 C 160.519531 524.53125 158 525.023438 155.328125 525.160156 C 152.515625 525.304688 149.605469 526.0625 146.636719 526.0625 C 145.765625 526.0625 144.851562 526.605469 143.984375 526.578125 C 142.679688 526.535156 140.121094 525.824219 137.203125 525.242188 C 135.207031 524.839844 133.511719 522.722656 131.320312 521.703125 C 129.386719 520.800781 127.488281 519.984375 125.742188 518.382812 C 124.4375 517.1875 121.929688 516.824219 121.015625 515.300781 C 120.105469 513.785156 119.574219 511.773438 119.105469 510.0625 C 118.640625 508.355469 118.761719 506.351562 118.792969 504.578125 C 118.832031 502.207031 119.960938 500.042969 120.875 498.019531 C 121.816406 495.941406 122.957031 493.945312 124.722656 492.4375 C 126.640625 490.792969 128.363281 488.585938 130.347656 487.960938 C 132.84375 487.179688 135.625 488.210938 137.476562 488.058594 C 138.136719 488.003906 138.113281 486.914062 138.699219 486.820312 C 139.101562 486.054688 140.621094 485.640625 140.992188 484.582031 C 141.828125 482.203125 141.578125 478.757812 143.261719 476.09375 C 144.285156 474.472656 145.953125 473.105469 147.234375 471.863281 C 148.582031 470.550781 151.125 470.78125 152.660156 469.824219 C 154.253906 468.832031 155.429688 467.183594 157.105469 466.503906 C 158.863281 465.789062 160.320312 463.949219 162.035156 463.496094 C 163.933594 462.992188 165.886719 462.605469 167.558594 462.3125 C 169.347656 462 171.40625 462.386719 173.375 462.238281 C 175.167969 462.105469 177.113281 463.675781 179.105469 463.675781 C 181.179688 463.675781 183.238281 462.566406 185.242188 462.667969 C 187.3125 462.777344 189.367188 462.789062 191.367188 462.933594 C 193.042969 463.050781 194.585938 464.597656 196.164062 464.683594 C 197.863281 464.78125 199.550781 464.175781 201.101562 464.175781 C 203.507812 464.175781 205.578125 464.269531 207.21875 463.945312 C 209.566406 463.484375 210.914062 461.964844 212.175781 460.550781 C 213.324219 459.265625 213.144531 457.355469 213.835938 455.011719 C 214.394531 453.125 216.34375 451.742188 217.179688 450.097656 C 218.0625 448.371094 219.835938 447.320312 220.925781 445.808594 C 222.058594 444.332031 223.269531 442.910156 224.550781 441.558594 C 225.84375 440.101562 225.601562 437.292969 226.875 435.964844 C 228.601562 434.164062 231.175781 433.339844 232.550781 431.648438 C 235.296875 428.253906 235.390625 425.476562 235.136719 423.621094 C 234.902344 421.953125 234.730469 419.777344 233.695312 417.886719 C 232.855469 416.359375 230.703125 415.449219 229.386719 413.839844 C 228.191406 412.371094 226.910156 410.96875 225.550781 409.648438 C 224.242188 408.378906 222.988281 406.941406 221.445312 405.675781 C 220.015625 404.511719 217.925781 404.164062 216.3125 403.023438 C 214.707031 401.890625 214.132812 398.535156 212.046875 397.363281 C 210.546875 396.515625 208.058594 397.101562 206.40625 396.066406 C 204.886719 395.113281 203.054688 394.386719 201.582031 393.199219 C 200.167969 392.058594 200.035156 389.578125 198.808594 388.15625 C 197.628906 386.785156 197 385.328125 196.125 383.636719 C 195.316406 382.066406 193.253906 381.019531 192.816406 379.121094 C 192.34375 377.058594 191.6875 374.945312 191.746094 372.917969 C 191.804688 370.847656 191.601562 368.566406 192.042969 366.554688 C 192.488281 364.535156 194.035156 362.730469 194.695312 360.792969 C 195.375 358.804688 195.554688 356.640625 196.277344 354.765625 C 196.828125 353.335938 197.828125 351.316406 198.5 349.269531 C 199.328125 346.75 199.773438 344.882812 199.386719 344.019531 C 199.378906 344.003906 199.015625 341.785156 192.667969 340.46875 C 192.042969 340.339844 191.292969 339.914062 190.460938 339.914062 C 188.191406 339.914062 185.71875 342.214844 182.871094 342.714844 C 181.125 343.023438 179.066406 341.609375 177.25 341.84375 C 175.496094 342.066406 173.765625 342.539062 171.921875 342.539062 C 170.125 342.539062 168.238281 343.53125 166.621094 343.234375 C 164.882812 342.914062 163.71875 340.765625 162.171875 340.097656 C 160.601562 339.421875 158.992188 339.027344 157.59375 337.988281 C 156.011719 336.8125 155.140625 335.214844 154.015625 333.804688 C 152.808594 332.285156 150.503906 331.496094 149.734375 329.847656 C 148.90625 328.082031 149.4375 325.84375 148.996094 324.101562 C 148.503906 322.308594 148.140625 320.480469 147.910156 318.632812 C 147.671875 316.257812 147.457031 314.300781 147.453125 313.046875 C 147.453125 311.042969 146.539062 308.832031 146.84375 306.707031 C 147.207031 304.589844 147.832031 302.527344 148.695312 300.5625 C 149.5 298.632812 151.75 297.660156 152.921875 296.15625 C 154.179688 294.546875 154.558594 292.101562 156.101562 290.917969 C 157.703125 289.683594 159.960938 289.414062 161.714844 288.5625 C 163.558594 287.667969 165.21875 286.335938 167.050781 285.777344 C 169.089844 285.15625 171.347656 285.964844 173.128906 285.648438 C 175.5625 285.210938 177.398438 283.238281 178.792969 283.097656 C 180.101562 282.960938 182.164062 284.046875 184.1875 283.710938 C 185.921875 283.421875 187.523438 282.25 189.113281 281.703125 C 191.105469 281.023438 193.050781 280.667969 193.734375 279.402344 C 194.023438 278.867188 194.957031 278.105469 195.296875 277.109375 C 195.78125 275.675781 195.347656 273.492188 196.285156 271.664062 C 197.238281 269.804688 197.835938 267.609375 199.097656 266.164062 C 200.4375 264.628906 203.28125 264.777344 204.878906 263.640625 C 206.511719 262.476562 208.265625 261.949219 210.066406 261.121094 C 211.886719 260.28125 213.132812 258.132812 215.019531 257.554688 C 216.960938 256.960938 219.203125 257.742188 221.105469 257.332031 C 223.136719 256.890625 225.039062 256.304688 226.890625 255.96875 C 227.957031 255.773438 227.59375 253.765625 228.664062 253.570312 C 230.953125 253.160156 233.457031 254.910156 235.363281 254.503906 C 237.6875 254.011719 239.066406 251.1875 240.878906 250.570312 C 243.117188 249.804688 244.589844 249.164062 246.148438 247.945312 C 247.777344 246.671875 249.066406 245.761719 250.082031 243.671875 C 250.84375 242.109375 253.46875 241.089844 253.886719 239.257812 C 254.269531 237.566406 252.511719 235.40625 252.730469 233.550781 C 252.9375 231.804688 254.425781 230.144531 254.589844 228.308594 C 254.753906 226.453125 255.007812 224.570312 255.230469 222.628906 C 255.449219 220.765625 256.089844 218.984375 256.457031 217.082031 C 256.8125 215.230469 256.460938 213.238281 257.046875 211.386719 C 257.613281 209.601562 259.433594 208.398438 260.289062 206.640625 C 261.066406 204.976562 261.980469 203.378906 263.027344 201.867188 C 264.183594 200.234375 264.628906 198.265625 265.976562 196.933594 C 267.386719 195.546875 269.238281 194.988281 270.84375 193.9375 C 272.472656 192.871094 273.765625 191.507812 275.582031 190.796875 C 277.367188 190.101562 279.039062 189.023438 280.988281 188.679688 C 282.855469 188.347656 284.804688 187.175781 286.804688 187.175781 C 288.6875 187.167969 290.566406 187.285156 292.429688 187.515625 C 294.238281 187.753906 295.683594 190.136719 297.472656 190.550781 C 299.261719 190.964844 300.863281 191.78125 302.613281 192.308594 C 304.382812 192.84375 306.347656 192.621094 308.058594 193.21875 C 309.820312 193.832031 311.320312 195.0625 313.003906 195.675781 C 314.59375 196.253906 316.285156 196.453125 317.773438 196.972656 C 319.40625 197.542969 321.507812 196.34375 322.988281 196.769531 C 324.601562 197.234375 325.765625 199.457031 327.511719 200.054688 C 329.125 200.605469 331.085938 200.351562 332.800781 200.960938 C 334.710938 201.640625 336.207031 203.730469 338.191406 204.40625 C 340.167969 205.074219 342.949219 203.191406 344.910156 203.757812 C 346.96875 204.355469 348.652344 206 350.605469 206.375 C 352.78125 206.792969 354.820312 206.351562 356.734375 206.351562 C 361.0625 206.351562 363.140625 206.347656 364.070312 205.234375 C 364.257812 205.007812 364.578125 205.277344 364.769531 205.050781 C 365.863281 203.738281 365.316406 200.707031 366.683594 199.277344 C 367.921875 197.980469 369.746094 196.945312 371.269531 195.785156 C 372.710938 194.695312 375.339844 195.585938 377.09375 194.816406 C 378.722656 194.097656 379.832031 191.371094 381.773438 191.089844 C 382.742188 190.949219 383.894531 192.390625 384.914062 192.390625 C 387.933594 192.390625 390.707031 191.96875 392.839844 192.457031 C 394.453125 192.824219 395.953125 193.335938 397.417969 193.679688 C 399.886719 194.261719 402.359375 193.664062 404.371094 194.082031 C 407.101562 194.644531 409.082031 196.632812 410.882812 196.632812 C 412.246094 196.632812 413.964844 196.742188 416.144531 194.492188 C 417.117188 193.484375 419.191406 192.539062 420.5 190.4375 C 421.351562 189.074219 420.667969 186.472656 421.699219 184.507812 C 422.332031 183.300781 422.140625 181.429688 422.890625 179.789062 C 423.523438 178.410156 426.898438 178.140625 427.578125 176.613281 C 428.371094 174.835938 428.46875 172.695312 429.316406 170.84375 C 430.136719 169.050781 431.679688 167.601562 432.566406 165.796875 C 433.441406 164.003906 433.269531 161.707031 434.226562 159.960938 C 435.191406 158.195312 436.433594 156.640625 437.492188 154.976562 C 438.582031 153.261719 439.484375 151.507812 440.6875 149.964844 C 441.945312 148.351562 442.796875 146.441406 444.195312 145.085938 C 445.660156 143.664062 447.867188 143.324219 449.507812 142.265625 C 451.199219 141.171875 452.671875 140.054688 454.574219 139.445312 C 457.308594 138.5625 459.804688 138.648438 462.054688 138.378906 C 463.484375 138.191406 464.890625 137.835938 466.242188 137.324219 C 467.730469 136.75 469.882812 134.933594 471.835938 133.027344 C 473.433594 131.464844 474.730469 129.183594 476.875 127.574219 C 478.746094 126.167969 481.183594 125.71875 483.648438 124.789062 C 485.054688 124.257812 486.414062 124.199219 487.949219 123.9375 C 489.417969 123.6875 490.738281 121.40625 492.308594 121.40625 C 494.136719 121.316406 495.972656 121.359375 497.796875 121.53125 C 499.808594 121.839844 501.535156 123.019531 502.929688 123.378906 C 505.140625 123.949219 506.859375 125.585938 508.722656 126.378906 C 510.828125 127.277344 513.09375 127.597656 514.742188 128.777344 C 516.570312 129.996094 518.210938 131.480469 519.609375 133.171875 C 520.921875 134.882812 521.585938 137.070312 522.273438 139.140625 C 522.886719 140.980469 523.582031 142.789062 523.660156 144.527344 C 523.746094 146.445312 521.96875 148.109375 521.675781 149.824219 C 521.339844 151.78125 522.40625 153.886719 521.980469 155.464844 C 521.816406 156.054688 520.585938 156.363281 520.4375 156.945312 C 520.066406 158.429688 520.027344 160.808594 520.085938 163.472656 C 520.128906 165.394531 520.101562 167.617188 520.363281 169.914062 C 520.59375 171.933594 521.613281 173.980469 522.015625 176.148438 C 522.394531 178.214844 523.386719 180.175781 523.917969 182.253906 C 524.449219 184.335938 525.808594 186.09375 526.488281 188.070312 C 527.167969 190.03125 527.960938 191.953125 528.871094 193.820312 C 529.867188 195.882812 530.03125 198.097656 531.230469 199.636719 C 532.183594 200.859375 533.714844 202.789062 535.34375 202.789062 C 535.464844 202.789062 535.632812 203.527344 535.757812 203.511719 C 536.519531 203.414062 537.4375 202.308594 538.578125 202.03125 C 541.230469 201.4375 543.945312 201.160156 546.667969 201.199219 C 549.089844 201.199219 551.476562 200.871094 553.195312 201.554688 C 555.300781 202.367188 557.230469 203.574219 558.882812 205.109375 C 561.371094 207.660156 561.332031 211.414062 562 213.53125 C 562.035156 213.527344 562.40625 213.707031 562.441406 213.703125 C 564.71875 213.421875 566.824219 212 569.175781 211.40625 C 571.398438 210.847656 574.050781 211.605469 576.378906 210.929688 C 578.65625 210.269531 580.929688 209.523438 583.308594 208.910156 C 585.605469 208.324219 587.699219 206.609375 590.125 206.199219 C 593.050781 205.703125 596.078125 206.105469 598.953125 206.105469 C 601.03125 206.105469 602.871094 207.410156 604.820312 207.671875 C 606.878906 207.945312 609.421875 205.703125 611.3125 206.253906 C 613.300781 206.835938 615.183594 208.113281 616.953125 208.988281 C 618.832031 209.886719 620.625 210.957031 622.296875 212.195312 C 623.90625 213.433594 625.238281 215.207031 626.539062 216.75 C 627.757812 218.199219 627.8125 220.421875 628.667969 222.082031 C 629.523438 223.746094 630.441406 225.308594 630.925781 227.128906 C 631.40625 228.921875 631.699219 230.761719 631.804688 232.617188 C 631.90625 234.460938 630.933594 236.164062 630.675781 238.054688 C 630.429688 239.878906 631.527344 241.980469 630.9375 243.800781 C 630.347656 245.621094 628.660156 246.914062 627.789062 248.535156 C 626.886719 250.214844 625.554688 251.375 624.386719 252.808594 C 623.1875 254.277344 622.746094 256.328125 621.304688 257.5 C 619.84375 258.691406 618.082031 259.339844 616.410156 260.179688 C 614.742188 261.023438 613.199219 262.144531 611.363281 262.597656 C 609.675781 263 607.957031 263.269531 606.226562 263.40625 C 604.410156 263.570312 602.648438 262.953125 601.023438 262.996094 C 598.109375 263.070312 594.953125 262.988281 593.527344 263.761719 C 592.300781 264.421875 590.835938 266.21875 589.871094 268.082031 C 589.136719 269.492188 590.105469 271.867188 589.476562 273.597656 C 588.886719 275.214844 588.9375 277.074219 588.402344 278.699219 C 587.648438 280.996094 584.722656 282.582031 583.832031 284.863281 C 582.941406 287.152344 582.613281 289.652344 581.363281 291.726562 C 580.644531 292.921875 580.386719 294.519531 579.597656 295.890625 C 578.609375 297.597656 575.910156 298.429688 574.785156 300.292969 C 573.734375 302.03125 574.527344 305.015625 573.332031 306.769531 C 572.167969 308.480469 569.964844 309.480469 568.648438 311.105469 C 567.328125 312.730469 567.164062 315.515625 565.675781 316.953125 C 564.160156 318.410156 561.394531 318.480469 559.683594 319.636719 C 557.953125 320.804688 555.785156 320.753906 553.832031 321.503906 C 552.648438 321.957031 552.046875 323.582031 551.074219 323.867188 C 550.464844 324.046875 548.6875 323.132812 548.25 323.304688 C 547.367188 324.292969 545.980469 326.757812 545.066406 329.078125 C 544.394531 330.792969 544.058594 332.976562 543.503906 334.941406 C 542.949219 336.910156 543.667969 339.226562 543.351562 341.042969 C 542.917969 343.5 544.101562 345.128906 544.351562 346.429688 C 544.964844 347.6875 545.554688 349.484375 547.214844 351.078125 C 547.945312 351.785156 547.605469 353.558594 548.308594 354.277344 C 549.578125 355.570312 550.738281 356.964844 551.773438 358.453125 C 552.792969 359.921875 553.640625 361.503906 554.292969 363.167969 C 555.09375 365.082031 557.183594 366.371094 557.382812 368.042969 C 557.632812 370.144531 556.816406 372.070312 556.511719 373.660156 C 556.09375 375.84375 554.199219 377.140625 553.628906 378.460938 C 553.601562 378.527344 555.394531 378.8125 555.363281 378.882812 C 555.5 379 555.65625 378.605469 555.839844 378.730469 C 556.613281 379.265625 557.003906 380.714844 558.066406 381.304688 C 560.074219 382.417969 562.574219 383.398438 564.804688 385.277344 C 566.285156 386.515625 567.121094 388.382812 568.289062 389.941406 C 569.4375 391.472656 571.398438 392.609375 572.222656 394.386719 C 573.023438 396.113281 572.042969 398.496094 572.523438 400.40625 C 572.988281 402.25 575.261719 403.851562 575.40625 405.816406 C 575.546875 407.710938 575.835938 409.839844 575.664062 411.804688 C 575.515625 413.546875 573.59375 415.046875 573.332031 416.671875 C 573.054688 418.382812 574.132812 420.320312 573.789062 421.941406 C 573.425781 423.621094 572.289062 425.109375 571.910156 426.734375 C 571.378906 429 570.8125 431.148438 570.410156 433.269531 C 569.988281 435.523438 570.9375 437.734375 570.859375 439.941406 C 570.78125 442.140625 570.449219 444.09375 570.917969 446.367188 C 571.242188 447.949219 570.105469 449.894531 570.726562 451.421875 C 571.292969 452.804688 573.84375 453.390625 574.585938 454.972656 C 574.921875 455.6875 574.699219 456.6875 575.042969 457.433594 C 575.894531 459.285156 575.660156 461.558594 576.269531 463.441406 C 576.898438 465.378906 578.863281 466.90625 579.394531 468.808594 C 579.871094 470.527344 578.886719 472.621094 579.382812 474.164062 C 579.96875 475.976562 581.710938 477.039062 582.460938 478.332031 C 583.199219 479.613281 583.039062 482.570312 584.71875 484.152344 C 585.886719 485.25 587.441406 486.015625 588.667969 487.347656 C 589.84375 488.539062 590.914062 489.824219 591.871094 491.195312 C 593.484375 493.640625 596.054688 495.242188 597.035156 497.351562 C 598.015625 499.457031 597.621094 501.992188 598.730469 503.347656 C 599.761719 504.613281 601.265625 505.5625 602.5 506.769531 C 603.667969 507.914062 604.589844 509.394531 605.863281 510.5625 C 607.355469 511.9375 609.304688 512.984375 610.871094 514.558594 C 612.328125 516.023438 614.648438 516.902344 616.011719 518.617188 C 617.304688 520.242188 617.410156 522.820312 618.484375 524.734375 C 619.554688 526.5625 620.445312 528.492188 621.144531 530.492188 C 621.792969 532.417969 623.542969 534.273438 623.851562 536.5 C 624.199219 538.996094 623.191406 542.019531 623.445312 545.046875 C 623.589844 546.773438 623.238281 548.652344 623.421875 550.550781 C 623.570312 552.042969 624.125 553.242188 624.277344 554.257812 C 624.496094 555.730469 626.476562 557.757812 626.328125 559.90625 C 626.207031 561.648438 625.253906 563.859375 624.269531 565.636719 C 623.460938 567.101562 621.460938 568.085938 619.722656 569.347656 C 616.957031 571.355469 616.296875 573.878906 614.996094 575.085938 C 613.644531 576.34375 610.585938 575.890625 608.382812 576.976562 C 606.679688 577.816406 605.085938 578.035156 602.566406 578.035156 C 600.882812 578.035156 599.09375 579.304688 596.519531 578.71875 C 594.421875 578.242188 592.105469 577.070312 589.523438 576.953125 C 587.261719 576.851562 584.828125 576.246094 582.359375 576.230469 C 580.332031 576.21875 578.253906 577.390625 576.160156 577.328125 C 574.113281 577.269531 571.929688 578.386719 569.867188 578.1875 C 567.8125 577.988281 565.949219 576.222656 563.925781 575.792969 C 561.945312 575.292969 560.011719 574.632812 558.136719 573.824219 C 556.234375 573.09375 554.777344 571.796875 552.996094 570.671875 C 551.363281 569.554688 549.851562 568.261719 548.496094 566.820312 C 546.90625 565.28125 544.917969 564.324219 543.691406 562.875 C 542.175781 561.085938 539.414062 560.273438 538.390625 560.035156 C 538.347656 560.027344 538.542969 560.042969 538.339844 560.042969 C 536.972656 559.984375 535.609375 560.109375 534.277344 560.414062 C 532.636719 560.820312 530.527344 560.164062 528.511719 560.441406 C 527.226562 560.617188 525.9375 562.089844 524.628906 562.089844 C 522.554688 562.089844 520.800781 559.242188 518.800781 558.832031 C 516.777344 558.414062 514.679688 558.855469 512.792969 558.050781 C 510.898438 557.242188 508.078125 557.863281 506.386719 556.699219 C 504.695312 555.53125 504.277344 552.675781 502.851562 551.183594 C 501.4375 549.707031 499.738281 548.453125 498.648438 546.691406 C 497.742188 545.359375 496.921875 543.96875 496.191406 542.53125 C 495.503906 540.992188 495.519531 539.25 494.984375 537.847656 C 494.21875 535.839844 494.070312 533.546875 493.21875 532.140625 C 492.171875 530.414062 490.53125 528.375 488.734375 527.316406 C 487.046875 526.324219 484.421875 526.78125 482.417969 526.246094 C 480.441406 525.71875 478.246094 526.761719 476.292969 526.550781 C 474.070312 526.3125 472.121094 524.039062 470.378906 524.039062 C 468.351562 524.039062 466.304688 525.152344 464.234375 525.320312 C 462.1875 525.484375 459.960938 524.4375 457.929688 524.734375 C 455.875 525.035156 454.066406 526.796875 452.078125 527.207031 C 450.015625 527.632812 447.691406 526.871094 445.761719 527.386719 C 443.683594 527.941406 442.132812 530.015625 440.28125 530.632812 C 438.164062 531.339844 436.199219 531.886719 434.492188 532.621094 C 432.855469 533.324219 431.652344 534.746094 430.089844 535.601562 C 428.539062 536.449219 426.4375 536.3125 424.925781 537.277344 C 423.441406 538.222656 421.453125 538.484375 419.976562 539.507812 C 418.53125 540.507812 418.40625 543.417969 416.9375 544.464844 C 415.4375 545.535156 413.703125 546.316406 412.171875 547.378906 C 410.65625 548.425781 408.242188 548.167969 406.675781 549.175781 C 405.125 550.171875 403.160156 550.390625 401.53125 551.3125 C 399.9375 552.214844 399.152344 554.652344 397.457031 555.449219 C 395.804688 556.230469 394.328125 557.683594 392.5625 558.332031 C 390.855469 558.960938 388.75 558.660156 386.914062 559.140625 C 384.980469 559.597656 383.070312 560.152344 381.191406 560.800781 C 379.230469 561.535156 376.875 561.292969 375.195312 562.175781 C 373.371094 563.105469 371.613281 564.15625 369.933594 565.332031 C 368.265625 566.546875 368.097656 569.4375 366.734375 570.800781 C 365.292969 572.246094 363.214844 573.011719 362.0625 574.585938 C 360.871094 576.214844 359.125 577.554688 358.179688 579.28125 C 357.214844 581.042969 356.722656 583.097656 355.949219 584.914062 C 355.164062 586.761719 355.546875 589.046875 354.890625 590.90625 C 354.21875 592.808594 353.808594 594.757812 353.195312 596.621094 C 352.597656 598.425781 352.050781 600.65625 350.972656 602.457031 C 349.976562 604.121094 347.910156 605.273438 346.628906 606.878906 C 345.394531 608.429688 344.230469 610.140625 342.839844 611.597656 C 341.445312 613.0625 338.949219 613.390625 337.503906 614.722656 C 335.96875 616.136719 335.375 618.515625 333.914062 619.730469 C 332.214844 621.136719 330.78125 622.621094 329.378906 623.679688 C 326.425781 626.105469 322.96875 626.378906 320.949219 626.378906 Z M 320.949219 626.824219 " fill-opacity="1" fill-rule="nonzero"/><path fill="#7ea356" d="M 309 610.664062 C 310.800781 611.476562 312.421875 612.039062 313.714844 612.71875 C 315.652344 613.730469 316.804688 615.113281 317.945312 615.707031 C 320.15625 616.855469 321.542969 616.863281 322.964844 615.636719 C 323.027344 615.578125 325.03125 614.15625 327.746094 611.886719 C 329.128906 610.730469 330.832031 609.488281 332.4375 607.984375 C 333.878906 606.636719 334.472656 604.339844 335.859375 602.832031 C 337.265625 601.296875 338.015625 599.429688 339.128906 597.84375 C 340.40625 596.027344 343.832031 595.449219 344.398438 593.726562 C 344.980469 591.957031 345.21875 590.027344 345.878906 588.164062 C 346.503906 586.390625 346.039062 584.171875 346.785156 582.355469 C 347.503906 580.609375 349.355469 579.359375 350.226562 577.613281 C 351.070312 575.917969 352.324219 574.535156 353.359375 572.878906 C 354.359375 571.273438 353.828125 568.601562 355.039062 567.0625 C 356.203125 565.582031 358.304688 564.867188 359.699219 563.480469 C 361.023438 562.15625 362.0625 560.46875 363.625 559.253906 C 365.09375 558.113281 367.3125 558.058594 369.015625 557.03125 C 370.605469 556.070312 372.320312 555.496094 374.128906 554.65625 C 375.808594 553.875 376.792969 551.300781 378.675781 550.636719 C 380.425781 550.019531 382.390625 549.757812 384.328125 549.25 C 386.273438 548.742188 387.820312 547.40625 389.628906 546.6875 C 391.476562 545.953125 393.308594 545.441406 395.046875 544.535156 C 396.800781 543.621094 398.257812 542.339844 399.933594 541.296875 C 401.605469 540.257812 403.585938 539.746094 405.214844 538.628906 C 406.835938 537.511719 408.960938 537.105469 410.570312 535.960938 C 412.175781 534.820312 413.613281 533.441406 415.238281 532.316406 C 416.855469 531.199219 418.121094 529.523438 419.792969 528.464844 C 421.453125 527.414062 423.734375 527.414062 425.476562 526.46875 C 427.199219 525.539062 428.378906 523.457031 430.210938 522.671875 C 431.835938 521.972656 433.941406 521.96875 435.90625 521.285156 C 437.636719 520.6875 439.289062 519.421875 441.226562 518.867188 C 443.023438 518.351562 444.9375 517.894531 446.871094 517.441406 C 448.714844 517.011719 450.941406 518.253906 452.867188 517.902344 C 454.75 517.558594 456.46875 516.195312 458.394531 515.941406 C 460.304688 515.691406 462.230469 515.476562 464.152344 515.335938 C 466.089844 515.195312 468.035156 516.535156 469.945312 516.523438 C 471.902344 516.511719 473.726562 516.546875 475.621094 516.691406 C 477.582031 516.839844 479.742188 514.992188 481.597656 515.332031 C 483.546875 515.691406 485.394531 516.566406 487.179688 517.15625 C 489.0625 517.78125 491.453125 517.5625 493.097656 518.472656 C 494.816406 519.425781 495.875 521.613281 497.277344 522.914062 C 498.679688 524.214844 498.851562 526.429688 499.871094 528.113281 C 500.753906 529.570312 503.09375 530.285156 503.730469 531.867188 C 504.367188 533.441406 504.09375 535.390625 504.734375 536.960938 C 505.375 538.539062 504.992188 540.769531 505.886719 542.21875 C 506.921875 543.890625 509.878906 544.089844 511.355469 545.378906 C 512.832031 546.667969 513.757812 548.804688 515.535156 549.640625 C 517.34375 550.539062 519.265625 551.1875 521.25 551.570312 C 523.183594 551.890625 525.261719 551.230469 527.210938 550.964844 C 529.480469 550.652344 532.003906 551.171875 534.261719 550.679688 C 536.570312 550.175781 538.519531 549.144531 540.804688 549.679688 C 542.746094 550.035156 544.570312 550.863281 546.113281 552.09375 C 547.648438 553.378906 549.078125 554.785156 550.390625 556.296875 C 551.691406 557.835938 552.335938 560.046875 553.742188 561.410156 C 555.160156 562.785156 557.15625 563.539062 558.835938 564.421875 C 560.523438 565.308594 562.769531 564.503906 564.65625 565.003906 C 566.476562 565.484375 568.0625 566.878906 570.011719 567.101562 C 571.890625 567.320312 573.757812 568.5625 575.707031 568.628906 C 577.617188 568.699219 579.574219 568.875 581.5 568.886719 C 583.433594 568.898438 585.347656 568.988281 587.253906 569.027344 C 589.210938 569.070312 591.191406 567.703125 593.0625 567.867188 C 595.03125 568.042969 596.691406 569.582031 598.511719 569.996094 C 601.667969 570.71875 603.847656 570.800781 605.167969 570.125 C 606.390625 569.496094 606.363281 566.515625 608.632812 564.519531 C 609.824219 563.46875 611.851562 562.761719 613.871094 561.296875 C 615.363281 560.210938 615.28125 559.171875 614.929688 556.679688 C 614.742188 555.351562 615.84375 553.519531 615.628906 551.308594 C 615.398438 548.933594 614.757812 546.726562 614.582031 544.632812 C 614.367188 542.128906 613.914062 539.859375 613.644531 537.914062 C 613.347656 535.761719 613.179688 533.523438 612.445312 531.730469 C 611.652344 529.789062 610.199219 528.085938 609.027344 526.445312 C 607.84375 524.789062 605.832031 523.800781 604.398438 522.328125 C 602.988281 520.878906 600.921875 520.132812 599.40625 518.738281 C 597.914062 517.367188 597.523438 514.792969 596.054688 513.355469 C 594.652344 511.898438 593.332031 510.363281 592.101562 508.761719 C 591.011719 507.425781 588.695312 506.933594 587.945312 505.496094 C 587.171875 504.015625 586.238281 502.585938 585.523438 501.082031 C 584.824219 499.609375 584.910156 497.820312 583.976562 496.40625 C 582.945312 494.84375 581.621094 493.675781 580.285156 492.363281 C 578.949219 491.054688 577.066406 490.269531 575.765625 488.953125 C 574.445312 487.613281 575.257812 484.644531 574.324219 483.03125 C 573.386719 481.40625 570.214844 480.710938 569.554688 478.828125 C 568.925781 477.035156 571.0625 474.320312 570.535156 472.433594 C 570.011719 470.566406 567.195312 469.355469 566.625 467.523438 C 566.078125 465.714844 565.410156 463.941406 564.628906 462.21875 C 563.589844 459.953125 564.128906 457.171875 563.234375 455.039062 C 562.339844 452.90625 562.242188 450.722656 561.738281 448.261719 C 561.410156 446.539062 561.21875 444.792969 561.164062 443.042969 C 561.0625 441.183594 560.222656 439.492188 560.363281 437.710938 C 560.503906 435.882812 561.324219 434.242188 561.640625 432.460938 C 561.957031 430.667969 561.898438 428.851562 562.304688 427.074219 C 562.707031 425.308594 562.570312 423.414062 562.972656 421.628906 C 563.371094 419.875 562.910156 417.941406 563.226562 416.132812 C 563.539062 414.367188 565.160156 412.753906 565.316406 410.910156 C 565.503906 408.746094 564.828125 406.457031 564.460938 404.296875 C 564.09375 402.113281 562.277344 400.570312 561.285156 398.644531 C 560.285156 396.695312 560.238281 394.15625 558.539062 392.730469 C 557.253906 391.582031 555.867188 390.554688 554.390625 389.664062 C 552.910156 388.832031 550.339844 389.679688 548.945312 388.71875 C 547.574219 387.769531 546.9375 385.507812 546 384.125 C 545.03125 382.695312 545.601562 381.054688 545.71875 379.335938 C 545.890625 376.734375 546.632812 374.425781 547.125 371.867188 C 547.539062 369.6875 547.949219 367.0625 546.945312 365.074219 C 545.984375 363.164062 543.417969 362.0625 541.921875 360.539062 C 540.410156 358.996094 538.714844 357.5625 537.238281 355.980469 C 535.738281 354.371094 535.597656 352.039062 534.769531 350.007812 C 534.1875 348.574219 532.34375 346.808594 532.460938 344.3125 C 532.546875 342.449219 534.320312 340.5625 534.71875 338.410156 C 535.082031 336.453125 533.980469 334.0625 534.550781 332.070312 C 535.121094 330.070312 536.039062 328.117188 536.769531 326.269531 C 537.519531 324.335938 538.410156 322.457031 539.433594 320.65625 C 540.679688 318.507812 542.78125 317.601562 544.125 316.75 C 546.1875 315.367188 548.378906 314.195312 550.671875 313.246094 C 552.457031 312.5625 555.011719 312.84375 556.617188 311.5625 C 558.105469 310.378906 558.957031 308.222656 560.300781 306.6875 C 561.570312 305.230469 563.445312 304.097656 564.597656 302.457031 C 565.734375 300.839844 567.058594 299.246094 568.085938 297.574219 C 569.148438 295.847656 568.269531 293 569.222656 291.351562 C 570.277344 289.527344 573.109375 288.878906 574.042969 287.324219 C 575 285.734375 573.648438 282.875 574.394531 280.9375 C 575.082031 279.15625 575.636719 277.3125 576.265625 275.394531 C 576.878906 273.53125 580.007812 272.507812 580.675781 270.660156 C 581.265625 268.828125 581.960938 267.03125 582.753906 265.277344 C 583.652344 263.449219 583.019531 260.746094 584.238281 259.273438 C 585.503906 257.738281 588.050781 257.835938 589.808594 256.886719 C 591.804688 255.808594 593.367188 253.472656 595.605469 253.230469 C 597.78125 252.992188 600.125 253.621094 602.367188 253.546875 C 604.574219 253.527344 606.773438 253.273438 608.925781 252.789062 C 610.945312 252.289062 612.355469 251.023438 613.976562 249.832031 C 615.605469 248.636719 618.339844 248.394531 619.503906 246.710938 C 620.648438 245.046875 620.019531 242.402344 620.648438 240.464844 C 621.277344 238.527344 622.234375 236.726562 622.285156 234.710938 C 622.332031 232.664062 622.566406 230.503906 621.953125 228.582031 C 621.339844 226.664062 619.164062 225.679688 617.824219 224.089844 C 616.554688 222.582031 615.824219 220.761719 614.207031 219.730469 C 612.589844 218.699219 611.074219 217.25 609.214844 216.640625 C 607.402344 216.050781 605.207031 217.191406 603.261719 216.957031 C 601.394531 216.730469 599.511719 216.652344 597.632812 216.722656 C 595.683594 216.789062 593.757812 216.230469 591.878906 216.550781 C 589.964844 216.871094 588.066406 217.164062 586.183594 217.632812 C 584.308594 218.105469 582.375 218.378906 580.515625 218.914062 C 578.652344 219.449219 576.839844 220.167969 574.976562 220.6875 C 573.109375 221.207031 571.324219 222.113281 569.433594 222.535156 C 567.546875 222.953125 565.652344 223.785156 563.730469 224.023438 C 562.28125 224.203125 560.523438 223.878906 559.074219 223.652344 C 557.5625 223.421875 555.265625 223.214844 554.234375 222.097656 C 553.15625 220.929688 554.746094 218.136719 554.269531 216.585938 C 553.792969 214.898438 552.957031 213.332031 551.816406 212 C 550.570312 210.722656 548.332031 211.460938 546.632812 211.46875 C 545.09375 211.472656 543.332031 210.925781 541.65625 211.328125 C 540.0625 211.65625 538.453125 211.894531 536.832031 212.042969 C 534.808594 212.296875 533.082031 212.550781 531.292969 211.902344 C 529.519531 211.214844 527.890625 210.191406 526.496094 208.890625 C 525.128906 207.679688 523.0625 206.863281 521.875 205.199219 C 520.800781 203.695312 520.464844 201.570312 519.539062 199.78125 C 518.679688 198.117188 517.53125 196.492188 516.800781 194.648438 C 516.101562 192.878906 514.792969 191.230469 514.210938 189.359375 C 513.640625 187.519531 515.019531 185.125 514.5625 183.242188 C 514.101562 181.347656 512.550781 179.714844 512.207031 177.832031 C 511.855469 175.886719 512.769531 173.804688 512.539062 171.933594 C 512.292969 169.933594 511.457031 168.097656 511.355469 166.257812 C 511.238281 164.179688 510.9375 162.25 511.007812 160.484375 C 511.09375 158.230469 510.289062 156.03125 510.675781 154.496094 C 511.1875 152.460938 511.5 150.386719 511.871094 148.3125 C 512.253906 146.175781 512.679688 144.605469 512 142.558594 C 511.414062 140.804688 510.488281 139.988281 509.144531 138.792969 C 507.84375 137.640625 507.308594 135.339844 505.632812 134.597656 C 503.992188 133.867188 501.792969 134.753906 500.101562 134.316406 C 497.886719 133.742188 495.878906 131.699219 493.597656 131.566406 C 491.273438 131.429688 489.085938 132.605469 486.914062 133.425781 C 485.210938 134.070312 482.765625 133.660156 481.34375 134.792969 C 479.953125 135.90625 478.464844 137.160156 477.164062 138.429688 C 475.867188 139.699219 474.753906 140.984375 473.363281 142.101562 C 471.949219 143.238281 470.980469 144.5625 469.28125 145.214844 C 467.410156 145.988281 465.445312 146.515625 463.441406 146.792969 C 461.382812 147.039062 459.429688 147.800781 457.464844 148.429688 C 455.796875 148.964844 453.375 148.761719 451.84375 150.015625 C 450.496094 151.113281 450.554688 153.859375 449.3125 155.378906 C 448.191406 156.746094 446.152344 157.542969 445.109375 159.15625 C 444.128906 160.671875 443.992188 162.753906 443.082031 164.40625 C 442.199219 166.015625 442.183594 168.054688 441.359375 169.722656 C 440.535156 171.394531 438.878906 172.640625 438.113281 174.304688 C 437.320312 176.027344 435.847656 177.40625 435.117188 179.042969 C 434.324219 180.824219 434.835938 183.105469 434.113281 184.691406 C 433.265625 186.550781 430.445312 187.25 429.691406 188.695312 C 428.664062 190.648438 429.589844 193.480469 428.625 195.046875 C 427.4375 196.964844 424.261719 197.113281 423.117188 198.503906 C 421.664062 200.265625 421.761719 203.144531 420.28125 204.164062 C 418.523438 205.378906 416.496094 206.507812 414.53125 206.882812 C 412.679688 207.234375 410.613281 205.207031 408.421875 205.003906 C 406.589844 204.832031 404.371094 206.300781 402.203125 205.859375 C 400.382812 205.488281 398.574219 204.304688 396.457031 203.808594 C 394.617188 203.378906 392.714844 202.671875 390.617188 202.195312 C 388.230469 201.605469 385.761719 201.460938 383.324219 201.761719 C 381.558594 201.957031 379.859375 202.539062 378.34375 203.46875 C 376.921875 204.417969 376.214844 206.257812 374.992188 207.558594 C 373.785156 208.84375 372.28125 209.863281 371.175781 211.179688 C 369.816406 212.804688 368.441406 214.511719 366.714844 215.417969 C 364.960938 216.339844 362.78125 216.582031 360.738281 216.894531 C 358.828125 217.1875 356.703125 218.257812 354.621094 218.132812 C 352.679688 218.015625 350.921875 215.652344 348.890625 215.261719 C 346.957031 214.890625 344.714844 215.679688 342.75 215.136719 C 340.820312 214.601562 339.292969 212.714844 337.386719 212.089844 C 335.453125 211.449219 332.773438 213.019531 330.914062 212.359375 C 328.953125 211.664062 327.367188 210.09375 325.554688 209.460938 C 323.523438 208.753906 321.820312 207.445312 320.054688 206.9375 C 318.195312 206.402344 315.855469 206.980469 313.882812 206.289062 C 312.019531 205.628906 310.65625 203.417969 308.730469 202.71875 C 306.84375 202.03125 304.886719 201.433594 302.972656 200.800781 C 301.039062 200.15625 298.78125 200.6875 296.855469 200.1875 C 294.859375 199.671875 293.171875 197.699219 291.222656 197.441406 C 289.164062 197.167969 287.066406 198.375 285.105469 198.503906 C 283.0625 198.640625 281.042969 198.519531 279.15625 199.226562 C 277.324219 199.910156 276.46875 201.992188 274.824219 203.335938 C 273.375 204.519531 271.714844 205.328125 270.445312 207.121094 C 269.21875 208.851562 267.191406 210.058594 266.4375 211.941406 C 265.675781 213.859375 264.335938 215.773438 263.914062 217.796875 C 263.496094 219.800781 265.761719 222.253906 265.53125 224.320312 C 265.304688 226.359375 262.625 228.167969 262.4375 230.226562 C 262.253906 232.28125 262.042969 234.277344 261.761719 236.3125 C 261.476562 238.363281 261.582031 240.359375 261.054688 242.34375 C 260.527344 244.328125 261.699219 247 260.785156 248.875 C 259.832031 250.832031 258.296875 252.535156 257.070312 253.996094 C 255.722656 255.609375 253.054688 255.660156 251.421875 256.789062 C 249.761719 257.9375 248.589844 259.878906 246.6875 260.65625 C 244.851562 261.402344 242.757812 261.550781 240.746094 262.074219 C 238.828125 262.570312 236.871094 263.082031 234.835938 263.476562 C 232.878906 263.851562 231.113281 265.484375 229.085938 265.855469 C 227.335938 266.171875 225.261719 265.070312 223.453125 265.449219 C 221.667969 265.820312 220.054688 266.90625 218.328125 267.425781 C 216.582031 267.878906 214.875 268.476562 213.226562 269.210938 C 211.554688 270.027344 210.632812 271.585938 209.296875 272.78125 C 207.957031 273.976562 205.503906 274.261719 204.644531 275.945312 C 203.378906 278.410156 204.417969 282.027344 203.101562 284.460938 C 202.054688 286.394531 200.050781 287.9375 198.351562 289.164062 C 196.683594 290.367188 194.765625 291.894531 192.707031 292.589844 C 190.746094 293.253906 188.191406 292.101562 186.085938 292.460938 C 183.976562 292.824219 182.054688 294.769531 180.007812 294.980469 C 177.96875 295.1875 175.652344 293.933594 173.554688 294.351562 C 171.488281 294.839844 169.464844 295.511719 167.515625 296.351562 C 165.527344 297.097656 163.675781 298.160156 162.023438 299.492188 C 160.421875 300.835938 157.933594 302.023438 157.085938 304.058594 C 155.984375 306.707031 157.269531 310.164062 157.273438 313.03125 C 157.277344 315.113281 156.585938 317.375 156.910156 319.480469 C 157.238281 321.625 158.828125 323.414062 159.71875 325.285156 C 160.632812 327.210938 162.226562 328.113281 163.976562 329.417969 C 165.792969 330.769531 167.152344 331.671875 169.242188 331.984375 C 171.285156 332.285156 173.320312 333.078125 175.527344 332.820312 C 177.601562 332.582031 179.585938 331.355469 181.722656 330.980469 C 183.839844 330.609375 186.117188 331.152344 188.21875 330.996094 C 190.390625 330.832031 192.757812 329.621094 194.832031 330.050781 C 196.867188 330.472656 198.597656 331.605469 200.164062 332.160156 C 202.1875 332.878906 203.046875 335.089844 204.386719 336.003906 C 205.824219 336.902344 206.980469 338.183594 207.734375 339.703125 C 208.601562 341.363281 210.308594 342.644531 210.28125 344.574219 C 210.253906 346.328125 209.585938 348.167969 209.078125 350.074219 C 208.613281 351.804688 207.207031 353.289062 206.539062 355.09375 C 205.898438 356.820312 205.441406 358.648438 204.777344 360.398438 C 204.105469 362.164062 204.621094 364.328125 204.089844 366.074219 C 203.554688 367.820312 203.179688 369.613281 202.960938 371.429688 C 202.726562 373.351562 201.890625 375.167969 202.300781 376.941406 C 202.726562 378.800781 203.84375 380.261719 204.921875 381.6875 C 205.988281 383.105469 206.320312 385.578125 207.8125 386.710938 C 209.21875 387.78125 212.003906 386.980469 213.605469 387.917969 C 215.164062 388.832031 216.839844 389.574219 218.414062 390.480469 C 220.015625 391.398438 220.65625 393.804688 222.101562 394.828125 C 223.644531 395.914062 225.199219 397.050781 226.777344 398.328125 C 228.277344 399.542969 230.132812 400.367188 231.582031 401.726562 C 233.011719 403.070312 233.863281 404.929688 235.160156 406.394531 C 236.480469 407.882812 237.234375 409.621094 238.335938 411.214844 C 239.472656 412.867188 241.679688 413.75 242.488281 415.492188 C 243.339844 417.316406 242.761719 419.4375 243.140625 421.324219 C 243.527344 423.257812 246.214844 425.140625 246 427.113281 C 245.792969 428.988281 244.316406 430.925781 243.460938 432.8125 C 242.703125 434.476562 240.136719 435.058594 238.800781 436.707031 C 237.453125 438.375 237.820312 441.570312 236.316406 443.148438 C 234.820312 444.71875 233.621094 446.515625 232.191406 448.117188 C 230.734375 449.753906 228.410156 450.550781 227.25 452.347656 C 226.082031 454.160156 224.335938 455.8125 223.714844 457.921875 C 223.128906 459.910156 223.589844 462.113281 222.785156 463.636719 C 221.824219 465.453125 219.703125 466.191406 218.464844 467.441406 C 217.089844 468.832031 216.449219 471.1875 214.777344 472.007812 C 213.113281 472.820312 210.867188 472.253906 208.960938 472.628906 C 207.175781 472.984375 205.394531 474.269531 203.4375 474.347656 C 201.609375 474.421875 199.667969 474.164062 197.726562 474.089844 C 195.878906 474.015625 193.960938 474.117188 192.042969 473.984375 C 190.179688 473.855469 188.351562 472.816406 186.453125 472.703125 C 184.574219 472.585938 182.683594 472.070312 180.792969 472.035156 C 178.902344 471.996094 176.921875 471.292969 175.042969 471.402344 C 173.109375 471.535156 171.1875 471.78125 169.28125 472.132812 C 167.183594 472.5 165.402344 474.707031 163.328125 475.359375 C 161.222656 476.023438 159.179688 476.578125 157.390625 477.71875 C 155.609375 478.875 154.113281 480.425781 153.023438 482.246094 C 152.050781 483.785156 151.570312 485.519531 150.941406 487.296875 C 150.304688 489.089844 149.847656 491.054688 149.027344 492.648438 C 148.160156 494.335938 145.949219 494.757812 144.261719 495.710938 C 142.230469 496.863281 140.179688 497.941406 137.789062 498.144531 C 135.339844 498.351562 133.007812 498.445312 131.191406 500 C 129.464844 501.472656 127.515625 503.773438 127.769531 506.023438 C 128.015625 508.179688 130.007812 510.523438 131.605469 511.992188 C 133.257812 513.511719 135.515625 514.40625 137.6875 514.988281 C 139.8125 515.558594 142.152344 515.519531 144.347656 515.59375 C 146.382812 515.660156 148.464844 516.742188 150.511719 516.667969 C 152.546875 516.59375 154.488281 514.121094 156.523438 514.019531 C 158.570312 513.921875 160.664062 513.765625 162.695312 513.757812 C 164.746094 513.75 166.800781 515.023438 168.820312 515.230469 C 170.84375 515.441406 172.476562 517.210938 174.457031 517.753906 C 176.285156 518.257812 178.691406 516.753906 180.042969 517.550781 C 181.585938 518.457031 181.382812 521.332031 182.546875 522.542969 C 183.710938 523.75 185.292969 524.453125 186.332031 525.886719 C 187.289062 527.210938 188.125 528.707031 189.179688 530.160156 C 190.074219 531.390625 191.859375 532.777344 191.589844 534.324219 C 191.304688 535.972656 188.546875 537.941406 189.226562 539.074219 C 190.472656 541.148438 194.75 540.277344 195.449219 541.578125 C 196.523438 543.578125 197.675781 545.375 198.625 547.152344 C 199.6875 549.148438 201.730469 550.398438 202.871094 552.085938 C 204.09375 553.890625 204.0625 556.863281 205.675781 558.285156 C 207.1875 559.617188 209.5625 560.378906 211.675781 561.34375 C 213.429688 562.144531 215.914062 561.371094 218.242188 561.902344 C 220.183594 562.34375 221.597656 564.621094 223.453125 565.191406 C 225.347656 565.777344 227.457031 565.558594 229.269531 566.273438 C 231.105469 567 233.167969 567.222656 234.925781 568.074219 C 236.699219 568.933594 238.515625 569.785156 240.214844 570.761719 C 241.917969 571.742188 242.476562 574.503906 244.105469 575.597656 C 245.734375 576.691406 247.40625 577.585938 248.964844 578.785156 C 250.519531 579.976562 253.207031 579.757812 254.699219 581.042969 C 256.183594 582.320312 256.222656 585.171875 257.648438 586.53125 C 259.0625 587.882812 261.789062 587.902344 263.152344 589.328125 C 264.503906 590.738281 266.542969 591.582031 267.851562 593.0625 C 269.144531 594.527344 269.464844 596.871094 270.71875 598.390625 C 271.964844 599.902344 272.753906 601.78125 273.964844 603.339844 C 274.804688 604.414062 277.070312 604.167969 279.90625 604.367188 C 281.59375 604.484375 283.5 605.949219 285.78125 606.109375 C 287.597656 606.242188 289.636719 605.550781 291.78125 605.859375 C 293.628906 606.128906 295.488281 606.863281 297.550781 607.355469 C 299.390625 607.792969 301.242188 608.359375 303.234375 609.039062 C 305.03125 609.65625 307.089844 609.800781 309 610.664062 Z M 309 610.664062 " fill-opacity="1" fill-rule="nonzero"/><g clip-path="url(#87be119914)"><g clip-path="url(#7a5cba08e4)"><g transform="matrix(1, 0, 0, 1, 52, 331)"><g clip-path="url(#6570d973e3)"><g clip-path="url(#d957ed75d1)"><g clip-path="url(#08fac5c2f3)"><path fill="#e34134" d="M 0.480469 0.167969 L 639.371094 0.167969 L 639.371094 105.824219 L 0.480469 105.824219 Z M 0.480469 0.167969 " fill-opacity="1" fill-rule="nonzero"/></g></g></g></g></g></g><g clip-path="url(#ca0735eb35)"><g clip-path="url(#0ebe7c6bcb)"><path stroke-linecap="butt" transform="matrix(0.75, 0, 0, 0.75, 52.47864, 331.166341)" fill="none" stroke-linejoin="miter" d="M 851.627425 15.00217 L 851.627425 125.877168 C 851.627425 129.851126 850.044092 133.668835 847.231592 136.481335 C 844.419092 139.293835 840.601384 140.877168 836.627426 140.877168 L 15.002438 140.877168 C 11.023271 140.877168 7.205563 139.293835 4.393063 136.481335 C 1.580563 133.668835 0.0024378 129.851126 0.0024378 125.877168 L 0.0024378 15.00217 C 0.0024378 11.023003 1.580563 7.205295 4.393063 4.392795 C 7.205563 1.580295 11.023271 0.00217005 15.002438 0.00217005 L 836.627426 0.00217005 C 840.601384 0.00217005 844.419092 1.580295 847.231592 4.392795 C 850.044092 7.205295 851.627425 11.023003 851.627425 15.00217 Z M 851.627425 15.00217 " stroke="#c13425" stroke-width="8" stroke-opacity="1" stroke-miterlimit="4"/></g></g><g fill="#ffffff" fill-opacity="1"><g transform="translate(71.353161, 412.5)"><g><path d="M 25.21875 0 L 13.546875 0 L 1.453125 -52.828125 L 11.859375 -52.828125 L 19.84375 -15.6875 L 20.734375 -15.6875 L 30.203125 -52.828125 L 39.125 -52.828125 L 48.78125 -15.6875 L 49.6875 -15.6875 L 57.703125 -52.828125 L 67.75 -52.828125 L 55.6875 0 L 43.96875 0 L 34.71875 -34.078125 L 33.96875 -34.078125 Z M 25.21875 0 "/></g></g></g><g fill="#ffffff" fill-opacity="1"><g transform="translate(139.311756, 412.5)"><g><path d="M 23.15625 0.765625 C 19.257812 0.765625 15.832031 -0.0351562 12.875 -1.640625 C 9.925781 -3.242188 7.640625 -5.59375 6.015625 -8.6875 C 4.390625 -11.78125 3.578125 -15.519531 3.578125 -19.90625 C 3.578125 -24.289062 4.390625 -28.035156 6.015625 -31.140625 C 7.640625 -34.253906 9.925781 -36.609375 12.875 -38.203125 C 15.832031 -39.804688 19.257812 -40.609375 23.15625 -40.609375 C 27.0625 -40.609375 30.488281 -39.804688 33.4375 -38.203125 C 36.394531 -36.609375 38.691406 -34.253906 40.328125 -31.140625 C 41.960938 -28.035156 42.78125 -24.289062 42.78125 -19.90625 C 42.78125 -15.519531 41.960938 -11.78125 40.328125 -8.6875 C 38.691406 -5.59375 36.394531 -3.242188 33.4375 -1.640625 C 30.488281 -0.0351562 27.0625 0.765625 23.15625 0.765625 Z M 23.15625 -7.734375 C 29.351562 -7.734375 32.453125 -11.789062 32.453125 -19.90625 C 32.453125 -24.125 31.65625 -27.210938 30.0625 -29.171875 C 28.46875 -31.140625 26.164062 -32.125 23.15625 -32.125 C 16.96875 -32.125 13.875 -28.050781 13.875 -19.90625 C 13.875 -11.789062 16.96875 -7.734375 23.15625 -7.734375 Z M 23.15625 -7.734375 "/></g></g></g><g fill="#ffffff" fill-opacity="1"><g transform="translate(185.629129, 412.5)"><g><path d="M 5.75 0 L 5.75 -39.859375 L 15.46875 -39.859375 L 15.46875 -33.921875 L 16.21875 -33.78125 C 17.1875 -36 18.453125 -37.625 20.015625 -38.65625 C 21.578125 -39.695312 23.484375 -40.21875 25.734375 -40.21875 C 27.992188 -40.21875 29.710938 -39.832031 30.890625 -39.0625 L 29.203125 -30.421875 L 28.4375 -30.28125 C 27.789062 -30.539062 27.164062 -30.726562 26.5625 -30.84375 C 25.957031 -30.96875 25.222656 -31.03125 24.359375 -31.03125 C 21.554688 -31.03125 19.421875 -30.050781 17.953125 -28.09375 C 16.484375 -26.132812 15.75 -22.984375 15.75 -18.640625 L 15.75 0 Z M 5.75 0 "/></g></g></g><g fill="#ffffff" fill-opacity="1"><g transform="translate(216.88071, 412.5)"><g><path d="M 5.75 0 L 5.75 -55.859375 L 15.75 -55.859375 L 15.75 -24.859375 L 16.734375 -24.859375 L 28.25 -39.859375 L 38.40625 -39.859375 L 38.40625 -39.03125 L 24.859375 -21.53125 L 39.921875 -0.90625 L 39.921875 0 L 29.375 0 L 16.734375 -16.796875 L 15.75 -16.796875 L 15.75 0 Z M 5.75 0 "/></g></g></g><g fill="#ffffff" fill-opacity="1"><g transform="translate(256.875509, 412.5)"><g/></g></g><g fill="#ffffff" fill-opacity="1"><g transform="translate(274.325814, 412.5)"><g><path d="M 10.734375 -44.625 C 8.921875 -44.625 7.445312 -45.171875 6.3125 -46.265625 C 5.1875 -47.359375 4.625 -48.773438 4.625 -50.515625 C 4.625 -52.222656 5.1875 -53.625 6.3125 -54.71875 C 7.445312 -55.820312 8.921875 -56.375 10.734375 -56.375 C 11.929688 -56.375 13 -56.117188 13.9375 -55.609375 C 14.882812 -55.097656 15.613281 -54.40625 16.125 -53.53125 C 16.644531 -52.65625 16.90625 -51.648438 16.90625 -50.515625 C 16.90625 -49.378906 16.644531 -48.363281 16.125 -47.46875 C 15.613281 -46.582031 14.882812 -45.882812 13.9375 -45.375 C 13 -44.875 11.929688 -44.625 10.734375 -44.625 Z M 5.75 0 L 5.75 -39.859375 L 15.75 -39.859375 L 15.75 0 Z M 5.75 0 "/></g></g></g><g fill="#ffffff" fill-opacity="1"><g transform="translate(295.786438, 412.5)"><g><path d="M 5.75 0 L 5.75 -39.859375 L 15.359375 -39.859375 L 15.359375 -34 L 16.109375 -33.828125 C 18.597656 -38.347656 22.625 -40.609375 28.1875 -40.609375 C 32.78125 -40.609375 36.15625 -39.351562 38.3125 -36.84375 C 40.46875 -34.34375 41.546875 -30.695312 41.546875 -25.90625 L 41.546875 0 L 31.546875 0 L 31.546875 -24.671875 C 31.546875 -27.328125 31.015625 -29.238281 29.953125 -30.40625 C 28.890625 -31.570312 27.191406 -32.15625 24.859375 -32.15625 C 21.992188 -32.15625 19.757812 -31.226562 18.15625 -29.375 C 16.550781 -27.519531 15.75 -24.601562 15.75 -20.625 L 15.75 0 Z M 5.75 0 "/></g></g></g><g fill="#ffffff" fill-opacity="1"><g transform="translate(342.4651, 412.5)"><g/></g></g><g fill="#ffffff" fill-opacity="1"><g transform="translate(359.915417, 412.5)"><g><path d="M 5.75 16.15625 L 5.75 -39.859375 L 15.75 -39.859375 L 15.75 -34.65625 L 16.515625 -34.5 C 17.691406 -36.53125 19.265625 -38.054688 21.234375 -39.078125 C 23.210938 -40.097656 25.53125 -40.609375 28.1875 -40.609375 C 31.382812 -40.609375 34.179688 -39.847656 36.578125 -38.328125 C 38.984375 -36.816406 40.851562 -34.515625 42.1875 -31.421875 C 43.519531 -28.328125 44.1875 -24.488281 44.1875 -19.90625 C 44.1875 -15.351562 43.484375 -11.535156 42.078125 -8.453125 C 40.671875 -5.367188 38.710938 -3.0625 36.203125 -1.53125 C 33.703125 0 30.8125 0.765625 27.53125 0.765625 C 25.050781 0.765625 22.90625 0.347656 21.09375 -0.484375 C 19.289062 -1.316406 17.765625 -2.613281 16.515625 -4.375 L 15.75 -4.234375 L 15.75 16.15625 Z M 24.75 -7.734375 C 27.738281 -7.734375 30.003906 -8.707031 31.546875 -10.65625 C 33.085938 -12.613281 33.859375 -15.695312 33.859375 -19.90625 C 33.859375 -24.125 33.085938 -27.210938 31.546875 -29.171875 C 30.003906 -31.140625 27.738281 -32.125 24.75 -32.125 C 21.957031 -32.125 19.738281 -31.109375 18.09375 -29.078125 C 16.457031 -27.054688 15.640625 -24 15.640625 -19.90625 C 15.640625 -15.832031 16.457031 -12.785156 18.09375 -10.765625 C 19.738281 -8.742188 21.957031 -7.734375 24.75 -7.734375 Z M 24.75 -7.734375 "/></g></g></g><g fill="#ffffff" fill-opacity="1"><g transform="translate(407.641809, 412.5)"><g><path d="M 5.75 0 L 5.75 -39.859375 L 15.46875 -39.859375 L 15.46875 -33.921875 L 16.21875 -33.78125 C 17.1875 -36 18.453125 -37.625 20.015625 -38.65625 C 21.578125 -39.695312 23.484375 -40.21875 25.734375 -40.21875 C 27.992188 -40.21875 29.710938 -39.832031 30.890625 -39.0625 L 29.203125 -30.421875 L 28.4375 -30.28125 C 27.789062 -30.539062 27.164062 -30.726562 26.5625 -30.84375 C 25.957031 -30.96875 25.222656 -31.03125 24.359375 -31.03125 C 21.554688 -31.03125 19.421875 -30.050781 17.953125 -28.09375 C 16.484375 -26.132812 15.75 -22.984375 15.75 -18.640625 L 15.75 0 Z M 5.75 0 "/></g></g></g><g fill="#ffffff" fill-opacity="1"><g transform="translate(437.845604, 412.5)"><g><path d="M 23.15625 0.765625 C 19.257812 0.765625 15.832031 -0.0351562 12.875 -1.640625 C 9.925781 -3.242188 7.640625 -5.59375 6.015625 -8.6875 C 4.390625 -11.78125 3.578125 -15.519531 3.578125 -19.90625 C 3.578125 -24.289062 4.390625 -28.035156 6.015625 -31.140625 C 7.640625 -34.253906 9.925781 -36.609375 12.875 -38.203125 C 15.832031 -39.804688 19.257812 -40.609375 23.15625 -40.609375 C 27.0625 -40.609375 30.488281 -39.804688 33.4375 -38.203125 C 36.394531 -36.609375 38.691406 -34.253906 40.328125 -31.140625 C 41.960938 -28.035156 42.78125 -24.289062 42.78125 -19.90625 C 42.78125 -15.519531 41.960938 -11.78125 40.328125 -8.6875 C 38.691406 -5.59375 36.394531 -3.242188 33.4375 -1.640625 C 30.488281 -0.0351562 27.0625 0.765625 23.15625 0.765625 Z M 23.15625 -7.734375 C 29.351562 -7.734375 32.453125 -11.789062 32.453125 -19.90625 C 32.453125 -24.125 31.65625 -27.210938 30.0625 -29.171875 C 28.46875 -31.140625 26.164062 -32.125 23.15625 -32.125 C 16.96875 -32.125 13.875 -28.050781 13.875 -19.90625 C 13.875 -11.789062 16.96875 -7.734375 23.15625 -7.734375 Z M 23.15625 -7.734375 "/></g></g></g><g fill="#ffffff" fill-opacity="1"><g transform="translate(483.873923, 412.5)"><g><path d="M 20.671875 16.90625 C 14.085938 16.90625 9.226562 15.941406 6.09375 14.015625 C 2.96875 12.085938 1.40625 9.40625 1.40625 5.96875 C 1.40625 3.863281 2.070312 2.144531 3.40625 0.8125 C 4.75 -0.519531 6.671875 -1.414062 9.171875 -1.875 L 9.171875 -2.640625 C 7.828125 -3.453125 6.859375 -4.359375 6.265625 -5.359375 C 5.679688 -6.359375 5.390625 -7.523438 5.390625 -8.859375 C 5.390625 -12.054688 7.472656 -14.210938 11.640625 -15.328125 L 11.640625 -16.078125 C 9.492188 -17.304688 7.878906 -18.828125 6.796875 -20.640625 C 5.710938 -22.460938 5.171875 -24.664062 5.171875 -27.25 C 5.171875 -29.894531 5.773438 -32.222656 6.984375 -34.234375 C 8.203125 -36.242188 9.984375 -37.804688 12.328125 -38.921875 C 14.679688 -40.046875 17.5 -40.609375 20.78125 -40.609375 C 24.101562 -40.609375 26.75 -40.03125 28.71875 -38.875 C 29.945312 -40.65625 30.660156 -42.71875 30.859375 -45.0625 L 31.609375 -45.53125 L 38.8125 -43.75 C 38.59375 -41.851562 38.035156 -40.257812 37.140625 -38.96875 C 36.253906 -37.675781 34.867188 -36.523438 32.984375 -35.515625 L 32.984375 -34.71875 C 35.222656 -32.75 36.34375 -29.992188 36.34375 -26.453125 C 36.34375 -23.992188 35.726562 -21.785156 34.5 -19.828125 C 33.28125 -17.878906 31.492188 -16.335938 29.140625 -15.203125 C 26.796875 -14.078125 24.007812 -13.515625 20.78125 -13.515625 L 19.265625 -13.546875 C 18.296875 -13.597656 17.617188 -13.625 17.234375 -13.625 C 16.316406 -13.625 15.597656 -13.375 15.078125 -12.875 C 14.566406 -12.382812 14.3125 -11.753906 14.3125 -10.984375 C 14.3125 -10.140625 14.644531 -9.484375 15.3125 -9.015625 C 15.988281 -8.546875 16.976562 -8.285156 18.28125 -8.234375 L 27.203125 -7.90625 C 36.023438 -7.644531 40.4375 -3.851562 40.4375 3.46875 C 40.4375 6.039062 39.78125 8.332031 38.46875 10.34375 C 37.15625 12.363281 35.023438 13.960938 32.078125 15.140625 C 29.140625 16.316406 25.335938 16.90625 20.671875 16.90625 Z M 20.78125 -20.53125 C 22.707031 -20.53125 24.210938 -21.09375 25.296875 -22.21875 C 26.378906 -23.351562 26.921875 -24.96875 26.921875 -27.0625 C 26.921875 -29.15625 26.378906 -30.757812 25.296875 -31.875 C 24.210938 -33 22.707031 -33.5625 20.78125 -33.5625 C 18.820312 -33.5625 17.3125 -33 16.25 -31.875 C 15.195312 -30.757812 14.671875 -29.15625 14.671875 -27.0625 C 14.671875 -24.945312 15.195312 -23.328125 16.25 -22.203125 C 17.3125 -21.085938 18.820312 -20.53125 20.78125 -20.53125 Z M 20.671875 9.640625 C 24.085938 9.640625 26.570312 9.15625 28.125 8.1875 C 29.675781 7.226562 30.453125 5.976562 30.453125 4.4375 C 30.453125 3.1875 30.054688 2.265625 29.265625 1.671875 C 28.472656 1.085938 27.207031 0.769531 25.46875 0.71875 L 17.59375 0.359375 C 17.332031 0.359375 17.085938 0.347656 16.859375 0.328125 C 16.628906 0.304688 16.40625 0.296875 16.1875 0.296875 C 14.5 0.296875 13.210938 0.65625 12.328125 1.375 C 11.453125 2.09375 11.015625 3.09375 11.015625 4.375 C 11.015625 6.0625 11.820312 7.359375 13.4375 8.265625 C 15.050781 9.179688 17.460938 9.640625 20.671875 9.640625 Z M 20.671875 9.640625 "/></g></g></g><g fill="#ffffff" fill-opacity="1"><g transform="translate(525.313893, 412.5)"><g><path d="M 5.75 0 L 5.75 -39.859375 L 15.46875 -39.859375 L 15.46875 -33.921875 L 16.21875 -33.78125 C 17.1875 -36 18.453125 -37.625 20.015625 -38.65625 C 21.578125 -39.695312 23.484375 -40.21875 25.734375 -40.21875 C 27.992188 -40.21875 29.710938 -39.832031 30.890625 -39.0625 L 29.203125 -30.421875 L 28.4375 -30.28125 C 27.789062 -30.539062 27.164062 -30.726562 26.5625 -30.84375 C 25.957031 -30.96875 25.222656 -31.03125 24.359375 -31.03125 C 21.554688 -31.03125 19.421875 -30.050781 17.953125 -28.09375 C 16.484375 -26.132812 15.75 -22.984375 15.75 -18.640625 L 15.75 0 Z M 5.75 0 "/></g></g></g><g fill="#ffffff" fill-opacity="1"><g transform="translate(555.517688, 412.5)"><g><path d="M 39.390625 -17.671875 L 13.765625 -17.671875 C 14.054688 -14.203125 15.046875 -11.675781 16.734375 -10.09375 C 18.421875 -8.519531 20.71875 -7.734375 23.625 -7.734375 C 25.914062 -7.734375 27.769531 -8.160156 29.1875 -9.015625 C 30.613281 -9.867188 31.757812 -11.164062 32.625 -12.90625 L 33.390625 -12.90625 L 40.03125 -8.640625 C 38.726562 -5.835938 36.765625 -3.566406 34.140625 -1.828125 C 31.515625 -0.0976562 28.007812 0.765625 23.625 0.765625 C 19.507812 0.765625 15.953125 -0.015625 12.953125 -1.578125 C 9.953125 -3.148438 7.640625 -5.484375 6.015625 -8.578125 C 4.390625 -11.671875 3.578125 -15.445312 3.578125 -19.90625 C 3.578125 -24.4375 4.429688 -28.253906 6.140625 -31.359375 C 7.847656 -34.472656 10.160156 -36.789062 13.078125 -38.3125 C 15.992188 -39.84375 19.269531 -40.609375 22.90625 -40.609375 C 28.539062 -40.609375 32.859375 -39.113281 35.859375 -36.125 C 38.859375 -33.144531 40.359375 -28.765625 40.359375 -22.984375 C 40.359375 -20.890625 40.285156 -19.265625 40.140625 -18.109375 Z M 30.78125 -24.140625 C 30.6875 -27.171875 29.984375 -29.378906 28.671875 -30.765625 C 27.359375 -32.148438 25.4375 -32.84375 22.90625 -32.84375 C 17.851562 -32.84375 14.878906 -29.941406 13.984375 -24.140625 Z M 30.78125 -24.140625 "/></g></g></g><g fill="#ffffff" fill-opacity="1"><g transform="translate(598.836366, 412.5)"><g><path d="M 18.640625 0.765625 C 15.921875 0.765625 13.425781 0.445312 11.15625 -0.1875 C 8.894531 -0.832031 6.960938 -1.710938 5.359375 -2.828125 C 3.765625 -3.953125 2.582031 -5.238281 1.8125 -6.6875 L 7.375 -12.6875 L 8.125 -12.6875 C 9.457031 -10.90625 11.023438 -9.566406 12.828125 -8.671875 C 14.628906 -7.773438 16.59375 -7.328125 18.71875 -7.328125 C 20.664062 -7.328125 22.132812 -7.675781 23.125 -8.375 C 24.113281 -9.082031 24.609375 -10.082031 24.609375 -11.375 C 24.609375 -12.394531 24.25 -13.242188 23.53125 -13.921875 C 22.820312 -14.609375 21.675781 -15.144531 20.09375 -15.53125 L 14.8125 -16.796875 C 10.863281 -17.742188 7.976562 -19.1875 6.15625 -21.125 C 4.34375 -23.0625 3.4375 -25.523438 3.4375 -28.515625 C 3.4375 -30.992188 4.066406 -33.144531 5.328125 -34.96875 C 6.597656 -36.800781 8.378906 -38.195312 10.671875 -39.15625 C 12.972656 -40.125 15.65625 -40.609375 18.71875 -40.609375 C 22.300781 -40.609375 25.273438 -40.085938 27.640625 -39.046875 C 30.003906 -38.015625 31.847656 -36.632812 33.171875 -34.90625 L 27.828125 -29.125 L 27.09375 -29.125 C 25.988281 -30.375 24.742188 -31.285156 23.359375 -31.859375 C 21.972656 -32.441406 20.425781 -32.734375 18.71875 -32.734375 C 14.769531 -32.734375 12.796875 -31.503906 12.796875 -29.046875 C 12.796875 -28.015625 13.160156 -27.171875 13.890625 -26.515625 C 14.628906 -25.867188 15.925781 -25.34375 17.78125 -24.9375 L 22.6875 -23.84375 C 26.738281 -22.976562 29.695312 -21.585938 31.5625 -19.671875 C 33.425781 -17.753906 34.359375 -15.179688 34.359375 -11.953125 C 34.359375 -9.429688 33.734375 -7.207031 32.484375 -5.28125 C 31.234375 -3.351562 29.425781 -1.863281 27.0625 -0.8125 C 24.695312 0.238281 21.890625 0.765625 18.640625 0.765625 Z M 18.640625 0.765625 "/></g></g></g><g fill="#ffffff" fill-opacity="1"><g transform="translate(635.579543, 412.5)"><g><path d="M 18.640625 0.765625 C 15.921875 0.765625 13.425781 0.445312 11.15625 -0.1875 C 8.894531 -0.832031 6.960938 -1.710938 5.359375 -2.828125 C 3.765625 -3.953125 2.582031 -5.238281 1.8125 -6.6875 L 7.375 -12.6875 L 8.125 -12.6875 C 9.457031 -10.90625 11.023438 -9.566406 12.828125 -8.671875 C 14.628906 -7.773438 16.59375 -7.328125 18.71875 -7.328125 C 20.664062 -7.328125 22.132812 -7.675781 23.125 -8.375 C 24.113281 -9.082031 24.609375 -10.082031 24.609375 -11.375 C 24.609375 -12.394531 24.25 -13.242188 23.53125 -13.921875 C 22.820312 -14.609375 21.675781 -15.144531 20.09375 -15.53125 L 14.8125 -16.796875 C 10.863281 -17.742188 7.976562 -19.1875 6.15625 -21.125 C 4.34375 -23.0625 3.4375 -25.523438 3.4375 -28.515625 C 3.4375 -30.992188 4.066406 -33.144531 5.328125 -34.96875 C 6.597656 -36.800781 8.378906 -38.195312 10.671875 -39.15625 C 12.972656 -40.125 15.65625 -40.609375 18.71875 -40.609375 C 22.300781 -40.609375 25.273438 -40.085938 27.640625 -39.046875 C 30.003906 -38.015625 31.847656 -36.632812 33.171875 -34.90625 L 27.828125 -29.125 L 27.09375 -29.125 C 25.988281 -30.375 24.742188 -31.285156 23.359375 -31.859375 C 21.972656 -32.441406 20.425781 -32.734375 18.71875 -32.734375 C 14.769531 -32.734375 12.796875 -31.503906 12.796875 -29.046875 C 12.796875 -28.015625 13.160156 -27.171875 13.890625 -26.515625 C 14.628906 -25.867188 15.925781 -25.34375 17.78125 -24.9375 L 22.6875 -23.84375 C 26.738281 -22.976562 29.695312 -21.585938 31.5625 -19.671875 C 33.425781 -17.753906 34.359375 -15.179688 34.359375 -11.953125 C 34.359375 -9.429688 33.734375 -7.207031 32.484375 -5.28125 C 31.234375 -3.351562 29.425781 -1.863281 27.0625 -0.8125 C 24.695312 0.238281 21.890625 0.765625 18.640625 0.765625 Z M 18.640625 0.765625 "/></g></g></g></svg>